<svg width="16" height="17" viewBox="0 0 16 17" fill="none" xmlns="http://www.w3.org/2000/svg">
<g clip-path="url(#clip0_1_279)">
<path d="M13.5562 3.82087L10.543 0.970187C10.2225 0.666969 9.80297 0.5 9.36178 0.5H3.625C2.67728 0.5 1.90625 1.27103 1.90625 2.21875V14.7812C1.90625 15.729 2.67728 16.5 3.625 16.5H12.375C13.3227 16.5 14.0938 15.729 14.0938 14.7812V5.06944C14.0938 4.59916 13.8978 4.14406 13.5562 3.82087ZM12.6457 4.25H10.3125C10.2263 4.25 10.1562 4.17991 10.1562 4.09375V1.89488L12.6457 4.25ZM12.375 15.5625H3.625C3.19422 15.5625 2.84375 15.212 2.84375 14.7812V2.21875C2.84375 1.78797 3.19422 1.4375 3.625 1.4375H9.21875V4.09375C9.21875 4.69684 9.70941 5.1875 10.3125 5.1875H13.1562V14.7812C13.1562 15.212 12.8058 15.5625 12.375 15.5625Z" fill="#6E7191"/>
<path d="M11.3438 6.75H4.46875C4.20987 6.75 4 6.95987 4 7.21875C4 7.47763 4.20987 7.6875 4.46875 7.6875H11.3438C11.6026 7.6875 11.8125 7.47763 11.8125 7.21875C11.8125 6.95987 11.6026 6.75 11.3438 6.75Z" fill="#6E7191"/>
<path d="M11.3438 9.25H4.46875C4.20987 9.25 4 9.45987 4 9.71875C4 9.97763 4.20987 10.1875 4.46875 10.1875H11.3438C11.6026 10.1875 11.8125 9.97763 11.8125 9.71875C11.8125 9.45987 11.6026 9.25 11.3438 9.25Z" fill="#6E7191"/>
<path d="M6.74125 11.75H4.46875C4.20987 11.75 4 11.9599 4 12.2188C4 12.4776 4.20987 12.6875 4.46875 12.6875H6.74125C7.00012 12.6875 7.21 12.4776 7.21 12.2188C7.21 11.9599 7.00012 11.75 6.74125 11.75Z" fill="#6E7191"/>
</g>
<defs>
<clipPath id="clip0_1_279">
<rect width="16" height="16" fill="white" transform="translate(0 0.5)"/>
</clipPath>
</defs>
</svg>
