<svg width="18" height="18" viewBox="0 0 18 18" fill="none" xmlns="http://www.w3.org/2000/svg">
<path d="M8.20559 16.2H7.08399C4.21599 16.2 2.7824 16.2 1.8912 15.292C1 14.384 1 12.9224 1 9.99998C1 7.07759 1 5.61599 1.8912 4.70799C2.7824 3.8 4.21599 3.8 7.08399 3.8H10.1264C12.9944 3.8 14.4288 3.8 15.32 4.70799C16.0056 5.40639 16.1632 6.43279 16.2 8.19999" stroke="#6E7191" stroke-width="1.5" stroke-linecap="round" stroke-linejoin="round"/>
<path d="M12.2 3.79999L12.12 3.552C11.724 2.32 11.5264 1.704 11.0552 1.352C10.5832 1 9.95759 1 8.70399 1H8.49359C7.2416 1 6.6152 1 6.144 1.352C5.672 1.704 5.4744 2.32 5.0784 3.552L5 3.79999M13.0888 10.004C13.2368 9.86798 13.3104 9.79998 13.4 9.79998C13.4896 9.79998 13.5632 9.86798 13.7112 10.004L14.2816 10.5296C14.3504 10.5928 14.3848 10.6248 14.4272 10.64C14.4704 10.656 14.5168 10.6544 14.6112 10.6504L15.3808 10.62C15.5792 10.612 15.6784 10.6088 15.7464 10.6656C15.8144 10.7224 15.828 10.8208 15.8544 11.0176L15.96 11.8064C15.9728 11.8976 15.9784 11.9424 16.0008 11.9824C16.0232 12.0208 16.0592 12.0488 16.1312 12.1056L16.752 12.5936C16.9056 12.7152 16.9824 12.7752 16.9976 12.8616C17.0128 12.948 16.9608 13.0312 16.8584 13.1976L16.4376 13.8752C16.3896 13.9528 16.3656 13.992 16.3576 14.0352C16.3496 14.0784 16.3592 14.124 16.3784 14.2136L16.5456 14.996C16.5856 15.188 16.6064 15.284 16.5624 15.3608C16.5184 15.4376 16.4248 15.468 16.2384 15.5288L15.4976 15.7696C15.4096 15.7984 15.3648 15.8128 15.3304 15.8416C15.296 15.8712 15.2744 15.9128 15.232 15.9952L14.8704 16.692C14.7784 16.8704 14.732 16.9592 14.648 16.9896C14.564 17.02 14.472 16.9816 14.2864 16.9048L13.576 16.6104C13.4888 16.5744 13.4456 16.556 13.4 16.556C13.3544 16.556 13.3112 16.5744 13.224 16.6104L12.5136 16.9048C12.328 16.9816 12.236 17.02 12.152 16.9896C12.068 16.9592 12.0216 16.8696 11.9296 16.692L11.568 15.9952C11.5248 15.9128 11.504 15.8712 11.4696 15.8424C11.4352 15.8136 11.3904 15.7984 11.3024 15.7704L10.5616 15.5288C10.3752 15.468 10.2816 15.4376 10.2376 15.3608C10.1936 15.284 10.2136 15.1888 10.2544 14.996L10.4224 14.2136C10.4408 14.124 10.4504 14.0792 10.4424 14.036C10.426 13.9781 10.3988 13.9238 10.3624 13.876L9.94239 13.1976C9.83839 13.0312 9.78719 12.948 9.80239 12.8616C9.81759 12.7752 9.89439 12.7152 10.048 12.5944L10.6688 12.1064C10.7408 12.0488 10.7768 12.0208 10.7992 11.9816C10.8216 11.9424 10.8272 11.8976 10.8392 11.8056L10.9456 11.0176C10.972 10.8216 10.9856 10.7224 11.0536 10.6656C11.1216 10.6088 11.2208 10.612 11.4192 10.62L12.1896 10.6504C12.2832 10.6544 12.3296 10.656 12.3728 10.64C12.4152 10.624 12.4496 10.5928 12.5184 10.5296L13.0888 10.004Z" stroke="#6E7191" stroke-width="1.5" stroke-linecap="round" stroke-linejoin="round"/>
</svg>
