<svg width="32" height="33" viewBox="0 0 32 33" fill="none" xmlns="http://www.w3.org/2000/svg">
<path d="M10.1547 26.9167C9.55735 26.9167 9.04891 26.7069 8.62935 26.2873C8.2098 25.8678 8.00002 25.3598 8.00002 24.7633V8.25H6.66669V6.91667H12V5.89H20V6.91667H25.3334V8.25H24V24.7633C24 25.3767 23.7947 25.8891 23.384 26.3007C22.9734 26.7122 22.4605 26.9176 21.8454 26.9167H10.1547ZM22.6667 8.25H9.33335V24.7633C9.33335 25.0024 9.41024 25.1989 9.56402 25.3527C9.7178 25.5064 9.91469 25.5833 10.1547 25.5833H21.8467C22.0511 25.5833 22.2391 25.498 22.4107 25.3273C22.5822 25.1567 22.6676 24.9682 22.6667 24.762V8.25ZM13.0774 22.9167H14.4107V10.9167H13.0774V22.9167ZM17.5894 22.9167H18.9227V10.9167H17.5894V22.9167Z" fill="#414141"/>
</svg>
