<svg width="24" height="25" viewBox="0 0 24 25" fill="none" xmlns="http://www.w3.org/2000/svg">
<g clip-path="url(#clip0_1_285)">
<path fill-rule="evenodd" clip-rule="evenodd" d="M11.293 8.793C11.4806 8.60553 11.7349 8.50021 12 8.50021C12.2652 8.50021 12.5195 8.60553 12.707 8.793L18.364 14.45C18.4595 14.5422 18.5357 14.6526 18.5881 14.7746C18.6405 14.8966 18.6681 15.0278 18.6693 15.1606C18.6704 15.2934 18.6451 15.4251 18.5948 15.548C18.5446 15.6709 18.4703 15.7825 18.3764 15.8764C18.2825 15.9703 18.1709 16.0445 18.048 16.0948C17.9251 16.1451 17.7934 16.1704 17.6606 16.1693C17.5278 16.1681 17.3966 16.1405 17.2746 16.0881C17.1526 16.0357 17.0423 15.9595 16.95 15.864L12 10.914L7.05002 15.864C6.86142 16.0462 6.60882 16.147 6.34662 16.1447C6.08443 16.1424 5.83361 16.0372 5.6482 15.8518C5.4628 15.6664 5.35763 15.4156 5.35535 15.1534C5.35307 14.8912 5.45386 14.6386 5.63602 14.45L11.293 8.793Z" fill="#1F1F1F"/>
</g>
<defs>
<clipPath id="clip0_1_285">
<rect width="24" height="24" fill="white" transform="matrix(-1 0 0 -1 24 24.5)"/>
</clipPath>
</defs>
</svg>
