<svg width="24" height="25" viewBox="0 0 24 25" fill="none" xmlns="http://www.w3.org/2000/svg">
<path d="M8.5 7.75C8.69698 7.75 8.89204 7.7112 9.07403 7.63582C9.25601 7.56044 9.42137 7.44995 9.56066 7.31066C9.69995 7.17137 9.81044 7.00601 9.88582 6.82403C9.9612 6.64204 10 6.44698 10 6.25C10 6.05302 9.9612 5.85796 9.88582 5.67597C9.81044 5.49399 9.69995 5.32863 9.56066 5.18934C9.42137 5.05005 9.25601 4.93956 9.07403 4.86418C8.89204 4.7888 8.69698 4.75 8.5 4.75C8.10218 4.75 7.72064 4.90804 7.43934 5.18934C7.15804 5.47064 7 5.85218 7 6.25C7 6.64782 7.15804 7.02936 7.43934 7.31066C7.72064 7.59196 8.10218 7.75 8.5 7.75ZM8.5 14.25C8.89782 14.25 9.27936 14.092 9.56066 13.8107C9.84196 13.5294 10 13.1478 10 12.75C10 12.3522 9.84196 11.9706 9.56066 11.6893C9.27936 11.408 8.89782 11.25 8.5 11.25C8.10218 11.25 7.72064 11.408 7.43934 11.6893C7.15804 11.9706 7 12.3522 7 12.75C7 13.1478 7.15804 13.5294 7.43934 13.8107C7.72064 14.092 8.10218 14.25 8.5 14.25ZM10 19.25C10 19.6478 9.84196 20.0294 9.56066 20.3107C9.27936 20.592 8.89782 20.75 8.5 20.75C8.10218 20.75 7.72064 20.592 7.43934 20.3107C7.15804 20.0294 7 19.6478 7 19.25C7 18.8522 7.15804 18.4706 7.43934 18.1893C7.72064 17.908 8.10218 17.75 8.5 17.75C8.89782 17.75 9.27936 17.908 9.56066 18.1893C9.84196 18.4706 10 18.8522 10 19.25ZM15.5 7.75C15.697 7.75 15.892 7.7112 16.074 7.63582C16.256 7.56044 16.4214 7.44995 16.5607 7.31066C16.6999 7.17137 16.8104 7.00601 16.8858 6.82403C16.9612 6.64204 17 6.44698 17 6.25C17 6.05302 16.9612 5.85796 16.8858 5.67597C16.8104 5.49399 16.6999 5.32863 16.5607 5.18934C16.4214 5.05005 16.256 4.93956 16.074 4.86418C15.892 4.7888 15.697 4.75 15.5 4.75C15.1022 4.75 14.7206 4.90804 14.4393 5.18934C14.158 5.47064 14 5.85218 14 6.25C14 6.64782 14.158 7.02936 14.4393 7.31066C14.7206 7.59196 15.1022 7.75 15.5 7.75ZM17 12.75C17 13.1478 16.842 13.5294 16.5607 13.8107C16.2794 14.092 15.8978 14.25 15.5 14.25C15.1022 14.25 14.7206 14.092 14.4393 13.8107C14.158 13.5294 14 13.1478 14 12.75C14 12.3522 14.158 11.9706 14.4393 11.6893C14.7206 11.408 15.1022 11.25 15.5 11.25C15.8978 11.25 16.2794 11.408 16.5607 11.6893C16.842 11.9706 17 12.3522 17 12.75ZM15.5 20.75C15.8978 20.75 16.2794 20.592 16.5607 20.3107C16.842 20.0294 17 19.6478 17 19.25C17 18.8522 16.842 18.4706 16.5607 18.1893C16.2794 17.908 15.8978 17.75 15.5 17.75C15.1022 17.75 14.7206 17.908 14.4393 18.1893C14.158 18.4706 14 18.8522 14 19.25C14 19.6478 14.158 20.0294 14.4393 20.3107C14.7206 20.592 15.1022 20.75 15.5 20.75Z" fill="#1F1F1F"/>
</svg>
